<?xml version="1.0" encoding="UTF-8" standalone="no"?>
<svg
   class="icon icon-tabler icon-tabler-cloud"
   width="24"
   height="24"
   viewBox="0 0 24 24"
   stroke-width="2"
   stroke="currentColor"
   fill="none"
   stroke-linecap="round"
   stroke-linejoin="round"
   version="1.1"
   id="svg6"
   sodipodi:docname="cloud.svg"
   inkscape:version="1.1 (c68e22c387, 2021-05-23)"
   xmlns:inkscape="http://www.inkscape.org/namespaces/inkscape"
   xmlns:sodipodi="http://sodipodi.sourceforge.net/DTD/sodipodi-0.dtd"
   xmlns="http://www.w3.org/2000/svg"
   xmlns:svg="http://www.w3.org/2000/svg">
  <defs
     id="defs10" />
  <sodipodi:namedview
     id="namedview8"
     pagecolor="#ffffff"
     bordercolor="#666666"
     borderopacity="1.0"
     inkscape:pageshadow="2"
     inkscape:pageopacity="0.0"
     inkscape:pagecheckerboard="0"
     showgrid="false"
     inkscape:zoom="11.448315"
     inkscape:cx="11.442732"
     inkscape:cy="12.010501"
     inkscape:window-width="1920"
     inkscape:window-height="1017"
     inkscape:window-x="1912"
     inkscape:window-y="-8"
     inkscape:window-maximized="1"
     inkscape:current-layer="svg6" />
  <path
     stroke="none"
     d="M0 0h24v24H0z"
     fill="none"
     id="path2" />
  <g
     id="g3871"
     transform="translate(-0.208513,-1.801727)">
    <path
       d="M 6.657,18 C 4.085,18 2,15.993 2,13.517 2,11.042 4.085,9.035 6.657,9.035 7.05,7.273 8.451,5.835 10.332,5.262 c 1.88,-0.572 3.956,-0.193 5.444,0.996 1.488,1.19 2.162,3.007 1.77,4.769 h 0.99 c 1.913,0 3.464,1.56 3.464,3.486 C 22,16.44 20.449,18 18.535,18 H 6.657"
       id="path4" />
    <path
       d="m 22.417026,17.206814 a 4.8671961,4.8671961 0 0 0 -9.31377,-1.201777 m -0.300444,-2.403553 v 2.403553 h 2.403554"
       id="path26"
       style="display:inline;fill:none;fill-opacity:1;stroke:#a50097;stroke-opacity:1" />
    <path
       d="m 12.802812,18.40859 a 4.8671961,4.8671961 0 0 0 9.31377,1.201777 m 0.300444,2.403554 v -2.403554 h -2.403553"
       id="path28"
       style="stroke:#a50097;stroke-width:2;stroke-miterlimit:4;stroke-dasharray:none;stroke-opacity:1" />
  </g>
</svg>
